<mxfile host="app.diagrams.net" modified="2024-04-22T20:19:45.553Z" agent="Mozilla/5.0 (Windows NT 10.0; Win64; x64; rv:125.0) Gecko/20100101 Firefox/125.0" version="24.2.2" etag="V_yuMTRWP-Q-UzKouGzU" type="google">
  <diagram name="Page-1" id="xSHntohndLy9GJ_s7QsW">
    <mxGraphModel>
      <root>
        <mxCell id="0" />
        <mxCell id="1" parent="0" />
      </root>
    </mxGraphModel>
  </diagram>
</mxfile>
